<?xml version="1.0" encoding="utf-8"?>
<svg viewBox="0 0 765 765" xmlns="http://www.w3.org/2000/svg">
    <defs>
        <style>
            .pillar {
            fill:#ffffff;
            stroke-width:0px;
            }
            .background{
            fill:#0a1322;
            stroke-width:0px;
            }
        </style>
    </defs>
    <rect class="background" width="765" height="765"/>
    <path class="pillar" d="M 131.421 705.206 C 126.619 697.752 124.218 688.589 124.218 677.654 L 124.218 173.681 C 124.218 162.275 126.619 152.963 131.421 145.765 C 136.222 138.566 142.149 134.977 149.177 134.977 C 156.205 134.977 162.533 138.587 167.184 145.765 C 171.81 152.963 174.136 162.275 174.136 173.681 L 174.136 677.654 C 174.136 688.568 171.81 697.752 167.184 705.206 C 162.533 712.661 156.53 716.377 149.177 716.377 C 141.823 716.377 136.222 712.661 131.421 705.206 Z" style="" transform="matrix(1, 0, 0, 1, 7.105427357601002e-15, 0)"/>
    <path class="pillar" d="M 598.067 705.826 C 593.264 698.371 590.863 689.208 590.863 678.273 L 590.863 174.3 C 590.863 162.895 593.264 153.582 598.067 146.384 C 602.869 139.186 608.795 135.598 615.823 135.598 C 622.851 135.598 629.177 139.207 633.829 146.384 C 638.456 153.582 640.782 162.895 640.782 174.3 L 640.782 678.273 C 640.782 689.187 638.456 698.371 633.829 705.826 C 629.177 713.28 623.176 716.997 615.823 716.997 C 608.47 716.997 602.869 713.28 598.067 705.826 Z" style="" transform="matrix(1, 0, 0, 1, 7.105427357601002e-15, 0)"/>
    <path class="pillar" d="M 481.405 704.396 C 476.604 696.406 474.203 686.56 474.203 674.855 L 474.203 134.379 C 474.203 122.14 476.604 112.166 481.405 104.434 C 486.207 96.724 492.134 92.858 499.162 92.858 C 506.19 92.858 512.517 96.724 517.168 104.434 C 521.795 112.145 524.121 122.14 524.121 134.379 L 524.121 674.855 C 524.121 686.56 521.795 696.406 517.168 704.396 C 512.517 712.383 506.515 716.377 499.162 716.377 C 491.809 716.377 486.207 712.383 481.405 704.396 Z" style="" transform="matrix(1, 0, 0, 1, 7.105427357601002e-15, 0)"/>
    <path class="pillar" d="M 248.082 704.715 C 243.281 696.727 240.88 686.88 240.88 675.176 L 240.88 134.7 C 240.88 122.462 243.281 112.487 248.082 104.755 C 252.884 97.044 258.812 93.178 265.838 93.178 C 272.867 93.178 279.194 97.044 283.846 104.755 C 288.473 112.464 290.797 122.462 290.797 134.7 L 290.797 675.176 C 290.797 686.88 288.473 696.727 283.846 704.715 C 279.194 712.704 273.192 716.698 265.838 716.698 C 258.486 716.698 252.884 712.704 248.082 704.715 Z" style="" transform="matrix(1, 0, 0, 1, 7.105427357601002e-15, 0)"/>
    <path class="pillar" d="M 364.743 703.54 C 359.941 694.975 357.54 684.424 357.54 671.886 L 357.54 92.517 C 357.54 79.402 359.941 68.7 364.743 60.413 C 369.544 52.147 375.471 48.003 382.498 48.003 C 389.526 48.003 395.855 52.147 400.506 60.413 C 405.133 68.679 407.459 79.379 407.459 92.517 L 407.459 671.865 C 407.459 684.424 405.133 694.975 400.506 703.519 C 395.855 712.084 389.851 716.356 382.498 716.356 C 375.146 716.356 369.544 712.084 364.743 703.519 L 364.743 703.54 Z" style="" transform="matrix(1, 0, 0, 1, 7.105427357601002e-15, 0)"/>
</svg>