<?xml version="1.0" encoding="UTF-8"?>
<svg id="pillar_logo" xmlns="http://www.w3.org/2000/svg" viewBox="0 0 765 765">
    <defs>
        <style>
            .letter {
                fill:#ffffff;
                stroke-width:0px;
            }
            .pillar {
                fill:#ffffff;
                stroke-width:0px;
            }
            .background{
                fill:#0a1322;
                stroke-width:0px;
            }
        </style>
    </defs>
    <rect class="background" width="765" height="765"/>
    <path class="letter"
          d="m207.31,586.79c-.81-.81-1.21-1.81-1.21-3v-54.84c0-1.24.4-2.25,1.21-3.04.81-.78,1.81-1.17,3-1.17h16.2c4,0,7.57.89,10.73,2.67,3.16,1.78,5.62,4.27,7.37,7.45,1.75,3.19,2.63,6.8,2.63,10.85s-.88,7.45-2.63,10.53c-1.76,3.08-4.21,5.48-7.37,7.21-3.16,1.73-6.74,2.59-10.73,2.59h-11.99v17.74c0,1.19-.39,2.19-1.17,3-.78.81-1.8,1.21-3.04,1.21s-2.19-.41-3-1.21Zm19.2-28.51c3.67,0,6.69-1.17,9.07-3.52,2.38-2.35,3.56-5.36,3.56-9.03s-1.19-6.99-3.56-9.48c-2.38-2.48-5.4-3.73-9.07-3.73h-11.99v25.76h11.99Z"/>
    <path class="letter"
          d="m263.85,586.79c-.81-.81-1.21-1.81-1.21-3v-54.84c0-1.24.4-2.25,1.21-3.04.81-.78,1.81-1.17,3-1.17s2.25.39,3.04,1.17c.78.78,1.17,1.8,1.17,3.04v54.84c0,1.19-.39,2.19-1.17,3-.78.81-1.8,1.21-3.04,1.21s-2.19-.41-3-1.21Z"/>
    <path class="letter"
          d="m294.51,586.79c-.78-.81-1.17-1.81-1.17-3v-54.84c0-1.19.4-2.19,1.21-3,.81-.81,1.78-1.21,2.92-1.21s2.19.4,3,1.21c.81.81,1.21,1.81,1.21,3v50.62h29.32c1.19,0,2.19.41,3,1.21.81.81,1.21,1.81,1.21,3s-.41,2.19-1.21,3c-.81.81-1.81,1.21-3,1.21h-33.53c-1.19,0-2.17-.41-2.96-1.21Z"/>
    <path class="letter"
          d="m352.59,586.79c-.78-.81-1.17-1.81-1.17-3v-54.84c0-1.19.4-2.19,1.21-3,.81-.81,1.78-1.21,2.92-1.21s2.19.4,3,1.21c.81.81,1.21,1.81,1.21,3v50.62h29.32c1.19,0,2.19.41,3,1.21.81.81,1.21,1.81,1.21,3s-.41,2.19-1.21,3c-.81.81-1.81,1.21-3,1.21h-33.53c-1.19,0-2.17-.41-2.96-1.21Z"/>
    <path class="letter"
          d="m457.2,583.87c0,1.13-.4,2.11-1.21,2.92-.81.81-1.81,1.21-3,1.21-.81,0-1.58-.23-2.31-.69-.73-.46-1.25-1.09-1.58-1.9l-4.54-11.34h-29.08l-4.62,11.34c-.38.81-.92,1.45-1.62,1.9-.7.46-1.46.69-2.27.69-1.19,0-2.17-.42-2.96-1.26-.78-.84-1.17-1.82-1.17-2.96,0-.54.13-1.16.41-1.86l22.76-54.35c.81-1.89,2.13-2.83,3.97-2.83,1.95,0,3.27.95,3.97,2.83l22.84,54.51c.27.7.4,1.3.4,1.78Zm-38.88-16.77h23.41l-11.58-28.84-11.83,28.84Z"/>
    <path class="letter"
          d="m514.38,584.19c0,1.08-.36,1.98-1.09,2.71s-1.71,1.09-2.96,1.09c-1.57,0-2.78-.67-3.64-2.03l-13.93-22.36h-11.83v20.17c0,1.19-.39,2.19-1.17,3-.78.81-1.8,1.21-3.04,1.21s-2.19-.41-3-1.21-1.22-1.81-1.22-3v-54.84c0-1.24.41-2.25,1.22-3.04.81-.78,1.81-1.17,3-1.17h14.58c4,0,7.57.84,10.73,2.51,3.16,1.67,5.62,4.02,7.37,7.05,1.75,3.03,2.63,6.48,2.63,10.37s-.97,7.24-2.92,10.21c-1.94,2.97-4.59,5.21-7.94,6.72l12.39,19.93c.54.87.81,1.76.81,2.67Zm-23.08-28.35c3.67,0,6.7-1.04,9.07-3.12,2.38-2.08,3.56-4.77,3.56-8.06,0-3.56-1.19-6.48-3.56-8.75-2.38-2.27-5.4-3.4-9.07-3.4h-10.37v23.33h10.37Z"/>
    <path class="letter"
          d="m535.56,585.25c-4.29-2.38-7.25-5.48-8.87-9.32-.27-.65-.41-1.19-.41-1.62,0-.81.3-1.52.89-2.15.59-.62,1.4-1.04,2.43-1.25.16-.05.43-.08.81-.08.86,0,1.69.26,2.47.77.78.51,1.36,1.2,1.74,2.07.97,2.11,2.89,3.89,5.75,5.35,2.86,1.46,6.02,2.19,9.48,2.19,4.05,0,7.48-.93,10.29-2.79s4.21-4.41,4.21-7.65-1.19-5.71-3.56-7.9c-2.38-2.19-5.99-3.52-10.85-4.01-6.7-.65-11.96-2.6-15.79-5.87-3.83-3.27-5.75-7.36-5.75-12.27,0-3.46.99-6.44,2.96-8.95,1.97-2.51,4.67-4.43,8.1-5.75,3.43-1.32,7.28-1.98,11.54-1.98,4.64,0,8.56.95,11.75,2.83,3.19,1.89,5.88,4.59,8.1,8.1.65,1.03.97,2,.97,2.92,0,1.19-.54,2.16-1.62,2.92-.59.38-1.3.57-2.11.57s-1.57-.2-2.27-.61c-.7-.41-1.24-.96-1.62-1.66-1.46-2.43-3.28-4.28-5.47-5.55-2.19-1.27-4.96-1.9-8.3-1.9-4.1,0-7.43.8-9.96,2.39-2.54,1.59-3.81,3.9-3.81,6.93,0,2.81,1.13,5.16,3.4,7.05,2.27,1.89,6.32,3.13,12.15,3.73,6.48.65,11.5,2.61,15.07,5.87,3.56,3.27,5.35,7.57,5.35,12.92,0,3.89-1.05,7.22-3.16,10s-4.9,4.86-8.38,6.24c-3.48,1.38-7.22,2.07-11.22,2.07-5.24,0-10-1.19-14.3-3.56Z"/>
    <path class="pillar"
          d="m280.84,473.77c-1.92-3.49-2.88-7.78-2.88-12.9v-235.95c0-5.34.96-9.7,2.88-13.07,1.92-3.37,4.29-5.05,7.1-5.05s5.34,1.69,7.2,5.05c1.85,3.37,2.78,7.73,2.78,13.07v235.95c0,5.11-.93,9.41-2.78,12.9-1.86,3.49-4.26,5.23-7.2,5.23s-5.18-1.74-7.1-5.23Z"/>
    <path class="pillar"
          d="m467.43,474.06c-1.92-3.49-2.88-7.78-2.88-12.9v-235.95c0-5.34.96-9.7,2.88-13.07,1.92-3.37,4.29-5.05,7.1-5.05s5.34,1.69,7.2,5.05c1.85,3.37,2.78,7.73,2.78,13.07v235.95c0,5.11-.93,9.41-2.78,12.9-1.86,3.49-4.26,5.23-7.2,5.23s-5.18-1.74-7.1-5.23Z"/>
    <path class="pillar"
          d="m421.43,473.39c-1.92-3.74-2.88-8.35-2.88-13.83v-253.04c0-5.73.96-10.4,2.88-14.02,1.92-3.61,4.29-5.42,7.1-5.42s5.34,1.81,7.2,5.42c1.85,3.61,2.78,8.29,2.78,14.02v253.04c0,5.48-.93,10.09-2.78,13.83-1.86,3.74-4.26,5.61-7.2,5.61s-5.18-1.87-7.1-5.61Z"/>
    <path class="pillar"
          d="m327.43,473.54c-1.92-3.74-2.88-8.35-2.88-13.83v-253.04c0-5.73.96-10.4,2.88-14.02,1.92-3.61,4.29-5.42,7.1-5.42s5.34,1.81,7.2,5.42c1.85,3.61,2.78,8.29,2.78,14.02v253.04c0,5.48-.93,10.09-2.78,13.83-1.86,3.74-4.26,5.61-7.2,5.61s-5.18-1.87-7.1-5.61Z"/>
    <path class="pillar"
          d="m374.43,472.99c-1.92-4.01-2.88-8.95-2.88-14.82V186.92c0-6.14.96-11.15,2.88-15.03,1.92-3.87,4.29-5.81,7.1-5.81s5.34,1.94,7.2,5.81c1.85,3.87,2.78,8.88,2.78,15.03v271.24c0,5.88-.93,10.82-2.78,14.82-1.86,4.01-4.26,6.01-7.2,6.01s-5.18-2-7.1-6.01Z"/>
</svg>